<?xml version="1.0" encoding="utf-8"?>
<!-- Designed by Vexels.com - 2020 All Rights Reserved - https://vexels.com/terms-and-conditions/  -->
<svg version="1.1" id="Capa_1" xmlns="http://www.w3.org/2000/svg" xmlns:xlink="http://www.w3.org/1999/xlink" x="0px" y="0px"
	 viewBox="0 0 1200 1200" enable-background="new 0 0 1200 1200" xml:space="preserve">
<g>
	<path d="M911.233,473.87c-5.79-7.302-11.919-14.331-18.332-21.098c-7.831-9.793-16.179-19.137-25.243-27.827
		c-15.098-14.474-31.805-27.338-49.484-38.596c3.134-4.272,5.756-9.008,8.562-13.485c3.264-5.207,6.702-10.448,9.192-16.063
		c6.315,4.182,12.891,8.453,20.179,9.988c3.66,0.771,7.746-2.306,7.694-5.887c6.718-5.107,11.141-14.504,15.601-21.204
		c6.127-9.204,13.272-17.871,15.766-28.82c0.273-1.199-0.022-2.468-0.656-3.532c-1.769-14.953-21.142-30.214-31.701-38.351
		c-15.922-12.27-35.176-21.653-55.364-23.575c-1.25-1.151-3.255-1.41-5.017-0.655c-9.407,4.032-15.348,18.323-20.838,26.522
		c-6.503,9.712-12.488,18.823-16.661,29.768c-0.677,1.774-0.001,3.285,1.213,4.23c1.947,7.239,8.485,10.533,14.46,14.714
		c0.502,0.351,1.017,0.684,1.52,1.033c-3.763,4.648-6.97,10.119-9.877,14.333c-4.41,6.394-10.468,13.115-12.753,20.735
		c-40.665-16.632-84.196-26.365-127.982-29.148c0.538-3.294,0.874-6.647,1.057-10.035c0.878,0.442,1.874,0.752,3.012,0.856
		c54.741,5.004,108.493-35.975,117.564-90.454c5.319-31.941,0.947-66.236-11.481-96.072c-10.733-25.767-34.143-42.093-57.393-55.761
		c-26.963-15.849-55.075-24.992-86.571-25.465c-30.172-0.454-61.667,5.909-88.664,19.603
		c-50.176,25.453-87.355,83.19-78.548,140.382c9.914,64.38,70.202,104.988,132.689,105.432c0.564,0.004,1.076-0.067,1.585-0.144
		c0.271,4.511,0.926,8.842,2.167,12.819c-1.156,0.102-2.317,0.224-3.482,0.34c-54.919,2.214-109.333,15.214-158.423,39.835
		c-66.524,33.364-120.601,88.334-157.076,152.84c-37.03,65.486-56.005,140.803-57.576,215.859
		c-1.699,81.181,16.262,167.788,63.488,235.008c53.398,76.003,133.903,129.398,221.647,157.843
		c81.971,26.574,168.676,27.396,250.44-0.622c78.048-26.744,148.169-76.362,199.09-141.309
		c57.492-73.326,86.55-161.344,84.605-254.523C1007.682,639.449,969.138,546.897,911.233,473.87z M847.109,278.391
		c-8.711,9.296-16.114,19.951-23.26,30.39c-3.038,4.437-6.543,9.049-9.154,13.894c-3.603-2.354-7.199-4.721-10.802-7.079
		c1.308-1.723,2.13-3.838,3.12-5.812c2.718-5.417,5.703-10.64,8.914-15.782c5.224-8.365,10.457-16.744,16.012-24.896
		C837.177,271.776,842.227,274.846,847.109,278.391z M863.858,293.001c-0.286,0.207-0.554,0.443-0.787,0.722
		c-3.141,3.761-6.008,7.723-8.864,11.701c-2.578,3.591-6.778,7.721-7.601,12.126c-0.641,3.429,2.223,7.384,6.076,6.076
		c4.614-1.567,7.43-5.947,10.125-9.819c2.779-3.992,5.403-8.101,8.438-11.909c0.065-0.081,0.113-0.17,0.174-0.253
		c0.056,0.071,0.118,0.138,0.174,0.21c3.254,4.167,5.343,8.299,8.745,11.409c-4.551,5.367-8.125,11.486-12.116,17.61
		c-3.883,5.958-9.363,12.343-12.39,19.243c-8.204-7.708-19.024-14.016-28.963-19.912c0.015-0.026,0.028-0.054,0.043-0.08
		c3.226-5.602,6.743-11.026,10.35-16.388c6.21-9.232,12.379-18.885,19.198-27.798C859.013,288.2,861.491,290.545,863.858,293.001z
		 M777.352,299.607c5.838-6.733,10.542-14.022,15.529-21.721c3.575-5.519,9.2-11.943,12.682-18.642
		c6.034,1.573,11.823,3.459,17.385,5.732c-6.669,8.138-13.274,16.314-19.175,25.053c-3.119,4.619-9.158,12.015-10.392,18.81
		c-0.906-0.575-1.799-1.171-2.709-1.74C786.02,304.19,781.963,301.038,777.352,299.607z M786.643,343.781
		c2.654-4.224,6.036-8.926,8.627-13.85c3.582,2.375,7.17,4.74,10.744,7.121c5.792,3.857,11.582,7.72,17.395,11.548
		c-3.561,3.871-6.613,8.223-9.7,12.621c-3.519,5.012-7.859,10.226-11.036,15.823c-1.748-0.991-3.484-2.003-5.246-2.963
		c-7.544-4.112-15.245-7.929-23.053-11.514C779.466,357.301,783.051,349.498,786.643,343.781z M582.515,280.839
		c-0.124-13.193,1.207-28.857-1.217-42.525c4.511,0.007,9.022,0.006,13.532,0.026c7.534,0.034,15.07,0.06,22.605,0.062
		c-2.435,14.332-2.596,28.814-2.798,43.4c-0.198,14.344-1.881,29.991,0.337,44.429c-11.071-0.237-22.15,0.036-33.199,0.777
		C585.657,313.09,582.647,294.82,582.515,280.839z M565.709,268.718c-32.441-4.641-59.411-19.336-71.347-51.722
		c-10.552-28.632-5.82-62.798,14.993-85.694c45.063-49.575,154.728-42.424,182.985,22.417
		c17.922,41.125-0.568,115.535-55.004,113.676c-2.309-0.079-4.166,0.549-5.589,1.607c-0.262-10.267-0.856-20.477-2.58-30.609
		c10.421-0.016,22.059,0.769,31.901-2.708c4.389-1.55,5.351-6.426,2.909-9.458c3.941-11.471,1.764-25.88,1.805-37.646
		c0.053-14.983,1.185-30.014-2.638-44.628c-0.472-1.802-1.865-2.827-3.418-3.156c-4.847-5.605-13.03-8.02-20.081-10.642
		c-10.906-4.056-22.36-6.478-33.934-7.597c-22.477-2.174-46.974,1.839-66.413,13.743c-1.858-0.972-4.355-0.466-5.538,1.529
		c-3.765,6.351-2.726,13.71-2.783,20.9c-0.067,8.483-0.133,16.966-0.18,25.449c-0.086,15.701-0.03,30.819,2.417,46.351
		c0.283,1.796,1.789,2.8,3.442,3.016c7.034,5.623,15.883,4.418,24.73,4.599c1.899,0.039,3.8,0.033,5.701,0.056
		C565.363,247.878,565.512,258.609,565.709,268.718z M564.325,221.707c3.062-14.391,1.255-29.99,0.969-44.578
		c-0.212-10.777,0.964-23.677-1.442-34.761c6.122-1.6,12.322-2.672,18.612-3.197c-0.642,17.273,2.212,34.9,3.03,52.102
		c0.404,8.496-1.855,22.137,1.252,30.281C579.271,221.562,571.797,221.588,564.325,221.707z M543.878,184.177
		c-0.047-8.483-0.112-16.966-0.18-25.449c-0.024-3.051,0.133-6.129,0.052-9.151c0.192-0.072,0.379-0.115,0.572-0.203
		c2.633-1.209,5.281-2.308,7.942-3.312c-1.501,10.183-0.588,21.439-0.777,31.068c-0.287,14.594-2.094,30.235,0.981,44.631
		c-3.486,0.071-6.869,0.378-10.035,1.442C543.906,210.208,543.951,197.42,543.878,184.177z M600.261,193.251
		c-1.327-18.22-3.021-36.367-5.59-54.414c3.649,0.099,7.328,0.362,11.041,0.818c4.119,0.505,8.225,1.282,12.293,2.232
		c-1.596,12.557-1.034,25.589-1.225,38.085c-0.119,7.733-0.223,15.466-0.308,23.2c-0.064,5.809-0.937,12.421,0.167,18.303
		c-5.477,0.004-10.953,0.015-16.43,0.041C603.018,213.1,600.868,201.579,600.261,193.251z M651.58,188.579
		c0.037,10.386-1.659,22.901,0.671,33.585c-7.323-1-15.071-0.694-22.292-0.679c0.97-5.326,0.251-11.178,0.193-16.469
		c-0.091-8.349-0.2-16.696-0.328-25.045c-0.176-11.453,0.289-23.381-0.861-34.969c1.489,0.498,2.985,0.982,4.448,1.535
		c6.674,2.522,12.266,6.821,18.85,7.933C650.889,165.731,651.539,177.173,651.58,188.579z M453.089,224.13
		c-16.88-48.746,8.326-102.663,49.099-131.37c42.125-29.66,106.647-35.419,153.454-14.274c21.31,9.626,45.297,23.678,60.528,41.675
		c17.374,20.529,23.317,52.883,23.047,79.098c-0.297,28.789-9.203,55.259-30.268,75.508c-19.799,19.032-46.024,28.674-73.366,27.641
		c-1.102-0.042-2.056,0.128-2.909,0.416c-0.167-6.249-0.512-12.478-0.656-18.525c1.388,1.049,3.152,1.74,5.32,1.824
		c56.96,2.225,85.422-62.65,79.039-111.487c-5.726-43.808-39.103-75.216-80.567-86.816c-40.895-11.441-91.442-6.325-126.107,19.529
		c-31.711,23.65-45.152,64.137-36.956,102.448c9.031,42.206,48.141,78.618,92.995,74.882c-0.161,4.154-0.475,8.563-0.739,13.057
		c-0.576-0.122-1.176-0.212-1.824-0.231C516.287,296.169,469.039,270.191,453.089,224.13z M939.706,926.456
		c-38.841,68.149-98.186,123.724-167.81,159.601c-69.406,35.765-150.273,51.334-227.675,38.232
		c-85.919-14.545-169.773-55.925-231.368-117.813c-32.054-32.206-58.427-70.329-73.993-113.192
		c-12.27-33.788-20.231-69.212-23.558-105.004c-6.586-70.838,3.43-142.893,29.598-209.08
		c25.569-64.674,66.65-123.72,122.622-165.649c48.578-36.389,105.875-57.659,165.345-65.839c0.722,0.328,1.503,0.539,2.335,0.572
		c13.424,0.542,27.516-3.087,40.953-4.218c12.848-0.425,25.722-0.291,38.56,0.415c26.47,1.455,52.705,5.611,78.535,11.507
		c2.639,0.602,4.727-0.378,6.041-1.987c0.024,0.005,0.048,0.008,0.072,0.013c0.721,0.176,1.447,0.332,2.167,0.512
		c7.858,1.97,15.665,4.21,23.412,6.665c8.51,3.034,16.855,6.49,24.845,9.896c33.438,14.257,67.233,32.501,95.643,55.897
		c1.973,1.704,3.948,3.405,5.878,5.162c11.569,10.539,22.348,21.917,32.06,34.194c8.853,11.191,17.181,26.003,28.021,36.555
		c7.646,11.911,14.633,24.21,20.902,36.736c20.26,40.477,37.568,81.758,47.201,126.164
		C998.667,754.183,984.475,847.906,939.706,926.456z"/>
	<path d="M775.729,424.619c-58.25-35.081-128.768-54.601-197.111-51.494c-1.577-0.031-3.148-0.104-4.728-0.108
		c-30.006-0.071-59.646,5.633-87.856,15.772c-0.338,0.053-0.676,0.107-1.036,0.22c-35.446,11.089-67.845,28.055-96.747,49.467
		c-18.244,12.634-35.45,26.899-51.49,42.965c-1.508,1.51-1.797,3.489-1.337,5.3c-49.937,55.824-83.05,127.262-94.553,202.266
		c-10.322,67.305-4.538,137.455,20.607,201.038c30.967,78.309,97.67,139.423,172.592,175.448
		c70.311,33.807,147.806,48.689,225.1,35.039c71.486-12.624,138.696-48.106,191.488-97.635
		c54.74-51.356,94.655-119.189,108.615-193.258c17.391-92.268-7.86-184.077-60.731-260.547
		C865.202,500.867,826.476,455.181,775.729,424.619z M869.38,950.911c-43.106,53.138-101.302,94.116-166.364,115.564
		c-67.791,22.348-138.253,21.307-205.966-0.634c-73.789-23.91-142.946-69.2-187.274-133.705
		c-38.787-56.442-53.265-128-51.883-195.691c2.134-104.527,47.686-206.948,126.326-274.671
		c33.4-22.306,68.268-41.719,106.368-56.269c27.086-10.344,54.148-17.608,83.303-18.342c22.309-0.561,44.618,1.535,66.894,3.321
		c29.675,5.944,58.716,16.038,86.412,29.973c57.566,28.964,104.451,72.364,141.823,124.57c7.085,9.898,13.839,20.045,20.193,30.419
		c-1.822-0.334-3.865,0.115-5.779,1.796c-4.255,3.741-8.953,7.01-13.751,10.151c-3.542-5.776-7.236-11.485-11.104-17.11
		c-24.124-35.079-52.311-68.439-86.865-93.556c1.32-4.111,2.538-8.215,3.754-12.199c2.198-7.194-9.286-12.402-12.425-5.238
		c-1.287,2.936-2.596,5.878-3.936,8.809c-2.337-1.492-4.689-2.962-7.082-4.376c-49.345-29.157-108.479-45.403-166.129-43.569
		c-3.646-0.142-7.3-0.219-10.967-0.196c-25.779,0.163-51.417,5.226-75.604,14.076c-1.385,0.507-2.751,1.043-4.128,1.562
		c-19.068,6.27-37.117,14.482-54.026,24.388c-1.467-1.809-2.961-3.599-4.54-5.329c-4.85-5.313-14.395,1.772-10.121,7.809
		c1.077,1.522,2.074,3.081,3.081,4.635c-4.428,2.884-8.741,5.922-12.997,9.035c-16.221,11.188-31.482,23.887-45.633,38.363
		c-1.237,1.265-1.638,2.848-1.484,4.385c-16.942,18.897-31.672,39.85-43.933,62.256c-4.477-2.867-9.198-5.362-14.656-6.748
		c-7.821-1.986-10.279,8.826-3.238,11.745c4.233,1.755,8.032,4.225,11.68,6.952c-15.938,32.038-27.006,66.661-32.469,102.183
		c-2.412,15.689-3.795,31.56-4.149,47.452c-4.605,0.184-9.206,0.441-13.793,0.915c-8.726,0.901-8.749,12.699,0,13.596
		c4.582,0.47,9.184,0.782,13.796,1.006c0.836,39.04,8.136,77.898,22.867,114.206c4.793,11.814,10.54,23.164,17.076,34.037
		c-3.877,2.242-7.667,4.635-11.21,7.533c-5.96,4.874,1.948,15.246,8.292,10.746c3.365-2.386,6.97-4.355,10.638-6.205
		c28.654,42.211,69.594,76.294,114.693,99.833c-2.234,3.394-4.547,6.728-7.089,9.877c-5.172,6.407,3.506,15.594,9.238,9.239
		c3.716-4.12,7.059-8.495,10.316-12.923c44.822,21.137,92.782,33.467,141.544,33.812c0.165,6.105,0.941,12.161,3.745,17.582
		c1.83,3.537,7.541,3.537,9.371,0c2.857-5.524,3.607-11.707,3.752-17.931c12.564-0.632,25.164-2.08,37.759-4.398
		c34.589-6.367,67.979-18.875,98.689-36.17c1.998,3.779,4.321,7.372,7.324,10.567c7.098,7.552,18.474-3.846,11.367-11.367
		c-2.067-2.187-3.882-4.543-5.549-6.998c19.748-12.323,38.241-26.639,55.016-42.614c16.035-15.27,30.573-32.187,43.248-50.387
		c4.68,4.249,10.1,8.003,14.876,6.032c3.443-1.421,6.1-4.029,6.097-8.008c-0.005-5.766-4.55-8.275-8.52-11.482
		c-0.794-0.641-1.583-1.288-2.373-1.933c19.512-31.734,33.457-66.826,40.027-103.609c2.269-12.704,3.61-25.333,4.086-37.857
		c5.962,0.136,11.889-0.056,17.694-0.863c8.074-1.123,5.728-13.569-1.866-13.788c-5.196-0.15-10.438-0.701-15.697-1.357
		c-1.032-50.186-15.801-98.44-40.448-142.751c5.591-4.171,10.827-8.711,15.308-14.27c0.697-0.865,1.157-1.763,1.43-2.659
		c27.611,47.38,46.4,99.427,48.318,155.114C945.373,815.828,917.426,891.682,869.38,950.911z M865.433,679.501
		c6.913,1.398,13.737,0.757,20.716,0.866c0.289,0.005,0.541-0.044,0.812-0.065c1.517,5.45,2.866,10.95,4.034,16.501
		c-3.857,0.014-7.702,0.376-11.557,0.646c-9.477,0.664-9.495,14.082,0,14.747c4.797,0.336,9.576,0.835,14.384,0.594
		c0.416,2.888,0.774,5.79,1.088,8.703c-1.007,0.065-2.033,0.18-3.123,0.397c-3.043,0.606-6.032,1.411-8.987,2.351
		c-3.68,1.171-6.048,4.969-4.996,8.798c0.983,3.578,5.119,6.225,8.798,4.995c2.758-0.922,5.544-1.725,8.384-2.356
		c0.354-0.079,0.681-0.18,1.022-0.268c0.017,0.339,0.043,0.676,0.058,1.015c0.073,1.613,0.116,3.225,0.157,4.837
		c-5.041-0.373-10.06-0.48-15.031-0.043c-9.756,0.858-9.411,13.681,0,14.924c4.888,0.646,9.87,1.328,14.89,1.94
		c-0.206,4.981-0.544,9.952-1.039,14.906c-4.129-0.857-8.546-0.997-12.097-1.12c-4.533-0.157-8.391,3.969-8.391,8.391
		c0,4.842,3.855,8.028,8.391,8.391c2.93,0.235,6.325,1.298,9.715,2.026c-0.42,2.485-0.869,4.966-1.359,7.438
		c-1.354-0.798-2.721-1.574-4.098-2.333c-3.99-2.197-9.201-0.975-11.542,3.026c-2.261,3.866-0.977,9.337,3.026,11.542
		c2.776,1.529,5.589,3.609,8.528,5.309c-0.951,3.547-1.984,7.072-3.076,10.579c-2.621-1.981-5.245-3.948-7.728-6.111
		c-3.308-2.88-8.238-3.254-11.492,0c-2.912,2.912-3.36,8.638,0,11.492c3.54,3.006,7.292,5.746,11.035,8.491
		c0.859,0.63,1.794,1.266,2.771,1.841c-1.738,4.602-3.589,9.162-5.564,13.67c-4.607-1.977-9.514-3.048-14.335-4.379
		c-10.271-2.836-14.578,12.92-4.391,15.927c3.859,1.139,7.85,2.009,11.599,3.49c-3.014,5.92-6.228,11.738-9.643,17.438
		c-6.858-4.259-14.969-7.372-21.767-1.775c-3.5,2.882-1.722,9.794,2.785,10.549c3.564,0.597,6.985,2.61,10.162,5.039
		c-4.099,6.041-8.413,11.936-12.954,17.646c-0.525,0.66-1.08,1.297-1.611,1.953c-4.14-3.44-8.829-6.506-12.609-10.279
		c-7.611-7.599-18.892,3.855-11.742,11.742c3.287,3.626,7.138,6.604,10.837,9.786c0.749,0.644,1.453,1.334,2.153,2.029
		c-1.669,1.844-3.373,3.656-5.086,5.46c-2.373-2.518-4.777-4.993-7.439-7.214c-3-2.504-7.3-2.94-10.24,0
		c-2.616,2.616-2.969,7.669,0,10.24c2.634,2.282,5.004,4.815,7.342,7.39c-1.798,1.726-3.627,3.418-5.465,5.101
		c-2.78-3.58-6.284-6.754-8.899-8.978c-3.141-2.671-7.72-3.083-10.803,0c-2.75,2.751-3.143,8.103,0,10.803
		c2.566,2.205,5.109,4.564,7.122,7.286c0.286,0.387,0.549,0.782,0.808,1.178c-2.896,2.4-5.834,4.75-8.814,7.046
		c-2.668-3.223-4.908-6.776-7.295-10.219c-4.793-6.914-15.75-0.812-11.434,6.684c2.15,3.733,4.32,8.184,7.01,12.128
		c-4.511,3.155-9.111,6.179-13.781,9.09c-3.104-5.396-6.543-10.565-11.182-14.926c-5.835-5.485-14.377,3.016-8.8,8.8
		c3.682,3.82,6.355,8.238,8.643,12.888c-4.962,2.808-10.01,5.455-15.119,7.982c-0.821-1.781-1.839-3.451-2.807-4.858
		c-3.288-4.782-7.366-8.73-11.365-12.908c-5.263-5.498-14.694,1.624-10.607,8.185c2.678,4.299,5.097,8.733,7.847,12.98
		c0.669,1.033,1.39,2.229,2.176,3.438c-3.435,1.474-6.895,2.884-10.383,4.228c-1.68-3.894-3.392-7.76-4.626-11.874
		c-2.594-8.655-15.265-5.046-13.452,3.709c0.919,4.439,2.155,8.925,3.737,13.25c-4.03,1.317-8.071,2.529-12.121,3.656
		c-0.155-3.542-1.043-7.179-1.829-10.336c-1.031-4.143-5.681-6.632-9.724-5.521c-4.157,1.142-6.625,5.585-5.521,9.724
		c0.502,1.882,1.051,4.209,1.267,5.862c0.185,1.411,0.289,2.761,0.51,4.078c-3.095,0.678-6.193,1.293-9.296,1.864
		c-0.361-4.634-0.698-9.27-1.046-13.905c-0.639-8.509-12.602-8.525-13.242,0c-0.355,4.723-0.696,9.448-1.065,14.17
		c-0.057,0.728-0.135,1.459-0.217,2.189c-6.957,0.875-13.927,1.462-20.904,1.808c-0.331-5.54-1.065-11.043-2.888-16.077
		c-1.829-5.051-8.462-5.059-10.294,0c-1.859,5.133-2.584,10.753-2.906,16.405c-8.858-0.073-17.715-0.581-26.559-1.49
		c3.219-6.53,4.764-14.464,5.498-20.514c1.048-8.639-13.356-10.502-15.179-2.054c-1.394,6.461-5.36,13.535-6.544,20.477
		c-2.606-0.418-5.208-0.904-7.809-1.394c1.236-2.666,2.447-5.344,3.61-8.044c1.575-3.654,1.085-7.907-2.645-10.088
		c-3.292-1.925-8.271-0.915-10.089,2.645c-2.086,4.088-4.264,8.123-6.523,12.118c-3.971-0.97-7.934-2.034-11.889-3.171
		c1.976-2.687,4.205-5.142,6.842-7.374c5.983-5.064-1.781-14.955-8.346-10.816c-5.514,3.476-10.459,7.803-13.94,13.307
		c-1.533-0.523-3.074-1.012-4.602-1.557c1.634-3.179,3.208-6.394,4.776-9.569c3.638-7.371-6.935-13.763-11.128-6.505
		c-2.17,3.755-4.559,7.377-6.747,11.106c-5.491-2.204-10.919-4.587-16.307-7.072c2.315-2.768,4.724-5.467,7.359-8.004
		c6.796-6.544-3.092-15.7-10.115-10.115c-4.217,3.354-7.767,7.25-10.98,11.422c-10.893-5.62-21.482-11.836-31.684-18.625
		c0.56-1.067,1.146-2.132,1.804-3.2c2.213-3.593,4.642-6.949,6.327-10.843c3.469-8.017-7.373-15.003-12.046-7.041
		c-2.468,4.205-6.169,7.927-9.086,11.987c-4.392-3.253-8.695-6.619-12.9-10.1c2.017-1.914,4.125-3.62,6.812-4.892
		c6.859-3.248,2.019-14.351-5.136-12.183c-4.717,1.43-9.332,3.806-12.914,7.244c-1.406-1.29-2.808-2.585-4.188-3.903
		c2.221-1.917,4.284-4.016,6.2-6.079c6.044-6.507-3.218-15.764-9.739-9.739c-2.157,1.993-4.442,3.738-6.786,5.474
		c-2.649-2.81-5.224-5.688-7.751-8.609c0.178-0.115,0.358-0.216,0.534-0.341c2.863-2.043,5.164-4.63,6.817-7.744
		c1.609-3.031,0.766-6.914-2.28-8.696c-3.168-1.853-6.724-0.542-8.695,2.28c-0.1,0.143-0.156,0.226-0.218,0.317
		c-0.033,0.033-0.061,0.059-0.125,0.13c-0.343,0.38-0.721,0.725-1.066,1.102c-0.086,0.094-0.142,0.159-0.189,0.214
		c-0.026,0.014-0.048,0.025-0.096,0.057c-0.41,0.273-0.826,0.517-1.251,0.766c-0.107,0.063-0.17,0.095-0.236,0.129
		c0.076-0.032,0.16-0.067,0.285-0.108c-0.098,0.033-0.19,0.076-0.287,0.11c-0.206,0.107-0.236,0.101-0.062,0.024
		c-0.53,0.187-1.049,0.379-1.575,0.6c-0.185,0.078-0.328,0.198-0.497,0.29c-2.564-3.306-5.047-6.678-7.45-10.113
		c2.403-1.773,4.669-3.762,6.718-6.104c2.497-2.856,2.662-5.959,1.201-9.309c-3.519-8.07-10.868-2.357-16.358,2.288
		c-3.322-5.549-6.436-11.215-9.279-17.02c8.197-3.541,17.434-9.184,17.398-18.06c-0.009-2.078-1.943-4.516-4.231-4.231
		c-4.451,0.553-7.675,2.899-11.284,5.358c-2.422,1.65-4.9,3.204-7.485,4.564c-2.05-4.847-3.954-9.757-5.708-14.728
		c1.519-0.739,3.019-1.516,4.472-2.383c0.964-0.576,1.859-1.219,2.75-1.902c2.012-1.541,3.03-3.145,3.995-5.458
		c0.905-2.169-0.2-5.087-1.756-6.643c-1.83-1.83-4.192-2.217-6.643-1.756c-2.61,0.491-5.044,2.653-6.673,3.911
		c0.025-0.023-0.371,0.269-0.637,0.465c-0.582-1.976-1.095-3.974-1.634-5.964c5.315-0.482,10.419-1.684,13.811-6.284
		c3.474-4.709-2.317-11.947-7.693-10.007c-2.488,0.898-3.992,1.751-6.461,2.201c-1.004,0.183-2.022,0.295-3.039,0.408
		c-1.247-5.653-2.318-11.344-3.25-17.06c6.108-1.403,13.129-3.363,15.963-8.444c2.432-4.36-0.593-10.383-5.863-10.216
		c-3.682,0.116-6.341,2-9.591,3.44c-0.822,0.364-1.674,0.666-2.514,0.99c-1.053-8.871-1.789-17.767-2.16-26.646
		c5.105,0.07,10.206,0.133,15.289,0.26c2.778,0.07,6.226-1.635,7.43-4.262c0.115-0.25,0.23-0.501,0.344-0.751
		c2.57-5.605-0.423-12.402-7.162-12.482c-1.987-0.023-3.619,0.34-4.924,0.971c-1.811-0.224-6.385-0.541-7.476-0.523
		c-1.262,0.02-2.522,0.061-3.784,0.085c0.006-1.713-0.017-3.431,0.013-5.14c0.078-4.466,0.28-8.924,0.54-13.378
		c1.657,0.416,3.354,0.644,5.07,0.561c5.069-0.247,9.769-3.316,9.685-8.813c-0.026-1.72-0.945-3.716-2.578-4.494
		c-1.397-0.666-2.803-1.324-4.387-1.329c-0.834-0.003-1.687,0.202-2.511,0.307c1.048-0.133-0.125,0.036-0.575,0.066
		c-0.502,0.033-0.993,0.052-1.496,0.049c-0.178-0.001-0.27,0.003-0.329,0.009c-0.053-0.01-0.083-0.016-0.157-0.028
		c-0.54-0.089-1.07-0.24-1.595-0.402c0.236-2.326,0.495-4.648,0.78-6.967c3.851,0.419,7.72,0.865,11.556,0.865
		c9.489,0,9.505-14.747,0-14.747c-3.206,0-6.435,0.315-9.657,0.662c1.076-6.561,2.349-13.083,3.814-19.559
		c4.805,0.045,9.5,0.866,14.281,1.66c3.082,0.512,6.981-0.28,8.488-3.454c0.596-1.255,1.098-2.359,1.026-3.793
		c-0.158-3.157-2.207-6.539-5.518-7.247c-4.971-1.064-9.793-1.685-14.68-1.718c1.106-4.039,2.311-8.047,3.568-12.038
		c6.466,1.244,15.333,5.825,21.422,1.956c3.216-2.044,3.802-5.573,2.334-8.901c-2.858-6.48-12.181-6.981-19.043-6.912
		c3.026-8.312,6.369-16.498,10.046-24.527c3.009,2.037,6.171,3.829,9.628,5.145c9.301,3.539,13.035-11.125,4.074-14.777
		c-2.538-1.034-4.928-2.286-7.233-3.661c2.939-5.719,6.048-11.343,9.32-16.871c1.407,1.441,2.946,2.753,4.674,3.889
		c4.314,2.836,10.746,5.003,14.535,0.172c1.605-2.046,1.77-4.708,0.492-6.985c-1.421-2.532-3.717-3.451-6.375-4.232
		c-2.488-0.731-4.541-2.117-6.429-3.992c3.02-4.654,6.171-9.219,9.432-13.706c2.32,2.691,4.901,5.078,8.199,6.706
		c4.605,2.273,12.606,4.434,15.902-1.199c3.15-5.383-2.347-9.038-6.738-10.649c-3.422-1.256-6.679-2.942-9.813-4.819
		c3.592-4.546,7.309-8.991,11.156-13.327c0.346,0.532,0.655,1.094,1.022,1.605c1.924,2.684,4.704,6.564,7.833,7.823
		c3.89,1.565,8.752,0.158,10.943-3.5c0.781-1.305,1.105-2.859,1.094-4.365c-0.009-1.187-0.402-2.28-0.902-3.336
		c-0.178-0.375-0.487-1.252,0.029,0.191c-0.929-2.597-3.716-4.793-6.635-3.767c-0.065,0.023-0.125,0.052-0.189,0.075
		c-1.614-1.246-3.218-2.527-4.673-3.93c4.452-4.617,9.053-9.093,13.805-13.421c3.058,2.604,5.475,5.65,8.122,8.895
		c2.281,2.797,7.028,2.649,9.633,0.574c2.586-2.06,4.119-6.503,1.89-9.464c-2.431-3.23-5.459-6.047-8.783-8.461
		c6.652-4.318,13.365-8.523,20.169-12.564c5.966,11.437,11.194,23.232,17.556,34.581c5.491,9.795,21.228,0.413,14.95-8.739
		c-6.377-11.144-12.333-22.62-19.201-33.465c11.403-6.32,23.067-12.203,35.095-17.513c-0.02,7.361,1.246,15.547,7.763,19.586
		c4.046,2.508,8.659-0.086,10.128-4.12c1.125-3.088,0.949-6.339-0.544-9.27c-0.642-1.26-1.919-1.964-3.267-2.162
		c-0.888-2.497-1.222-5.18-1.443-7.804c-0.042-0.503-0.128-0.975-0.251-1.416c1.48-0.593,2.95-1.201,4.442-1.776
		c2.243-0.865,4.485-1.7,6.727-2.519c0.037,0.054,0.055,0.115,0.095,0.169c3.631,4.844,4.737,12.394,9.978,15.82
		c4.485,2.931,10.737-0.913,10.629-6.099c-0.07-3.321-2.066-6.732-3.898-9.449c-1.133-1.68-2.359-3.346-3.689-4.914
		c3.639-1.149,7.288-2.223,10.956-3.2c0.042,0.322,0.092,0.646,0.196,0.98c1.532,4.948,2.731,9.956,4.044,14.961
		c0.563,2.145,2.614,4.613,4.945,4.945c2.872,0.408,4.623,0.044,6.888-1.821c1.834-1.51,2.532-4.69,1.821-6.888
		c-1.652-5.099-3.85-10.079-6.057-14.97c4.816-0.992,9.677-1.806,14.599-2.417c0.015,0.305,0.02,0.605,0.076,0.926
		c0.963,5.511,0.631,10.735,0.288,16.276c-0.194,3.139,2.446,6.486,5.48,7.198c1.443,0.338,2.531,0.212,3.968,0
		c3.208-0.473,5.452-4.212,5.48-7.198c0.057-6.062-1.275-12.435-3.012-18.28c1.208-0.061,2.415-0.122,3.631-0.157
		c19.032-0.546,38.085,1.135,57.105,2.581c3.55,0.709,7.088,1.488,10.615,2.334c-1.661,3.809-2.039,8.461-1.614,12.116
		c0.552,4.751,3.872,8.561,9.065,7.858c5.05-0.683,7.494-5.239,6.652-9.985c-0.354-1.992-0.653-3.63-0.68-5.888
		c-0.004-0.179,0.014-0.358,0.019-0.536c5.936,1.732,11.83,3.667,17.677,5.784c-1.041,4.863-2.449,9.643-3.292,14.539
		c-0.673,3.908,1.041,7.917,5.133,9.041c3.752,1.031,8.095-1.262,9.041-5.133c1.059-4.333,1.722-8.855,2.192-13.363
		c4.038,1.682,8.05,3.458,12.032,5.323c-1.147,3.232-1.873,6.555-2.226,9.983c-0.448,4.354,0.207,7.846,3.862,10.6
		c2.474,1.864,6.495,0.396,7.898-2.071c1.623-2.854,1.094-5.446,1.271-8.529c0.083-1.447,0.33-2.873,0.667-4.279
		c4.18,2.175,8.305,4.425,12.356,6.774c-0.413,0.591-0.749,1.24-0.925,1.971c-0.999,4.146-2.813,7.683-4.291,11.727
		c-2.143,5.864,6.124,10.076,10.183,5.927c3.432-3.508,5.326-7.952,6.517-12.646c4.424,2.826,8.754,5.774,13.018,8.805
		c-2.661,4.472-5.555,8.795-8.841,12.843c-7.736,9.529,6.253,20.42,12.917,11.653c3.994-4.136,7.21-8.885,9.901-13.981
		c1.188,0.945,2.374,1.89,3.548,2.851c-0.433,1.547-0.902,3.081-1.116,4.669c-0.121,0.97-0.156,1.218-0.105,0.743
		c0.079-0.748,0.008-0.228-0.215,1.561c-0.004,0.736,0.081,1.625,0.273,2.323c0.511,1.861,2.093,3.819,4.013,4.347
		c3.887,1.068,6.555-1.055,8.321-4.081c1.927,1.723,3.85,3.451,5.738,5.218c-0.651,0.506-1.185,1.152-1.529,1.94
		c-0.414,0.946-0.854,1.876-1.357,2.779c-0.273,0.489-0.559,0.971-0.862,1.442c-0.053,0.082-0.442,0.65-0.626,0.927
		c-0.287,0.365-0.895,1.16-0.781,1.013c-0.47,0.608-0.86,1.199-1.247,1.854c-0.727,1.23-1.249,2.52-1.732,3.863
		c-1.575,4.383,3.349,9.185,7.689,7.689c3.237-1.116,5.609-3.15,7.426-5.673c0.285-0.028,0.569-0.045,0.862-0.111
		c1.31-0.292,2.287-1.027,3.271-1.886c0.24-0.21,0.469-0.432,0.711-0.639c-0.02,0.026,0.357-0.271,0.469-0.351
		c0.135-0.097,0.263-0.207,0.398-0.305c4.661,4.83,9.192,9.798,13.597,14.896c-2.436,1.76-4.729,3.66-6.557,5.935
		c-5.38,6.695,2.628,14.536,9.326,9.327c2.02-1.571,4.073-3.095,6.124-4.623c3.956,4.928,7.792,9.972,11.527,15.11
		c-0.054,0.103-0.107,0.207-0.167,0.306c-0.171,0.281-0.368,0.542-0.549,0.816c-0.007,0.008-0.008,0.008-0.016,0.016
		c-1.051,1.132-2.108,2.141-3.032,3.389c-1.258,1.699-0.376,4.778,1.486,5.668c3.036,1.451,6.264,0.919,9.129-0.528
		c4.841,7.032,9.483,14.202,13.892,21.503c-6.755,4.597-16.312,11.395-15.271,19.307c0.581,4.409,3.748,7.351,8.382,6.385
		c4.523-0.943,6.851-4.595,10.156-7.51c1.58-1.393,3.244-2.682,4.936-3.936c4.056,7.409,7.85,14.946,11.349,22.604
		c-4.188,2.236-7.411,6.152-12.412,6.678c-2.77,0.292-5.152,1.907-5.503,4.858c-0.297,2.493,1.225,5.72,4.014,6.148
		c7.007,1.075,14.289,0.31,19.935-3.596c1.989,4.974,3.85,9.995,5.567,15.064c-5.073,0.315-10.073,1.601-15.241,1.202
		C859.912,666.197,858.264,678.05,865.433,679.501z M746.689,497.388c-1.991,0.855-2.011,0.847-0.017-0.04
		C746.677,497.361,746.683,497.375,746.689,497.388z"/>
	<path d="M608.055,729.821c1.913-19.101,0.524-39.144,0.755-58.009c0.31-25.344,0.311-50.706,0.293-76.052
		c-0.018-24.605-0.113-49.21-0.17-73.815c-0.027-11.932-0.115-23.858-0.296-35.789c-0.187-12.264,1.115-25.815-2.262-37.702
		c-1.944-6.842-11.933-6.85-13.878,0c-3.195,11.247-2.052,23.867-2.228,35.465c-0.181,11.931-0.298,23.857-0.325,35.789
		c-0.058,25.35-0.157,50.701-0.175,76.052c-0.018,24.601,0.002,49.215,0.265,73.815c0.22,20.566-1.402,42.545,1.116,63.256
		c-10.436,4.281-18.762,16.935-18.766,27.445c-0.006,13.301,10.322,20.735,21.925,23.224c0.042,2.721,0.129,5.437,0.121,8.1
		c-0.03,9.506-0.06,19.013-0.09,28.519c-0.06,19.013-0.12,38.025-0.18,57.038c-0.018,5.878,4.549,8.813,9.116,8.803
		c4.567,0.015,9.134-2.915,9.115-8.803c-0.06-19.013-0.12-38.025-0.18-57.038c-0.028-8.775-0.055-17.55-0.083-26.325
		c-0.011-3.4,0.149-6.92,0.196-10.446c11.71-3.063,20.124-12.49,18.237-25.826C628.979,746.371,619.677,733.046,608.055,729.821z"/>
	<path d="M360.248,916.609c0.001,0,0.002-0.001,0.003-0.001c-0.019,0.008-0.049,0.018-0.065,0.025
		C360.206,916.626,360.227,916.617,360.248,916.609z"/>
	<path d="M536.66,626.381c5.235-6.096,10.279-12.315,15.044-18.695c4.305-5.762-5.583-13.48-10.043-7.749
		c-4.6,5.911-9.501,11.555-14.585,17.034c-23.09-20.417-53.908-32.822-82.694-24.085c-1.924,0.584-3.244,1.68-4.091,3.001
		c-37.874,9.997-66.945,46.922-70.254,85.257c-3.593,41.615,22.659,78.253,55.913,100.637c32.908,22.151,80.35,19.785,110.278-6.39
		c33.925-29.671,38.308-79.434,20.688-118.803C552.216,646.086,545.22,635.712,536.66,626.381z M507.806,688.783
		c4.283,0.375,8.993-1.044,13.127-2.09c1.244-0.315,2.578-0.879,3.78-1.645c7.815,31.223-10.628,65.19-44.208,68.62
		c-0.098-2.196-0.568-4.49-0.729-6.335c-0.607-6.953-2.096-13.611-8.356-17.635c-3.223-2.071-7.482,1.359-6.429,4.942
		c1.749,5.947,1.071,12.345,1.583,18.566c-24.044-4.024-45.767-23.972-53.537-46.68c-1.039-3.037-1.778-6.183-2.257-9.376
		c8.915-0.116,20.347-0.869,26.665-7.722c2.875-3.118,0.736-7.711-3.32-8.015c-4.209-0.316-8.948,0.983-13.076,1.861
		c-3.58,0.762-7.189,1.449-10.797,2.102c0.474-8.271,2.686-16.456,6.566-23.664c7.546-14.016,19.614-22.488,33.297-28.994
		c1.219,0.566,2.679,0.765,4.352,0.361c1.503-0.364,3.005-0.614,4.504-0.808c0.703,5.565,0.402,10.994,2.375,16.442
		c1.296,3.577,6.149,4.579,8.258,1.079c3.358-5.575,3.249-11.494,1.678-17.335c9.863,1.553,19.25,6.312,27.388,12.928
		c-11.111,10.771-22.108,21.625-32.015,33.417c-1.389-0.242-2.819-0.244-4.229,0.015c-1.582-0.628-3.392-0.641-5.017,0.352
		c-6.125,3.742-10.065,11.665-6.189,18.49c3.669,6.458,13.665,8.355,19.778,4.438c4.702-3.013,6.451-9.086,5.073-14.342
		c11.073-10.449,22.275-21.05,33.16-31.967c4.441,5.271,8.189,11.058,11.024,16.987c-1.475-0.02-2.952,0.123-4.258,0.343
		c-4.607,0.776-8.898,2.119-12.56,5.111C498.87,681.958,503.049,688.366,507.806,688.783z M533.666,754.595
		c-21.472,25.561-59.009,32.769-89.184,18.882c-28.839-13.272-55.298-44.651-59.099-76.603
		c-5.04-42.373,22.129-73.629,57.847-90.107c1.41,0.708,3.121,0.969,5.104,0.454c23.876-6.197,48.859,4.651,67.759,21.122
		c-2.433,2.437-4.888,4.853-7.354,7.26c-16.5-13.458-37.839-21.174-57.787-15.265c-1.766,0.523-2.961,1.525-3.712,2.732
		c-25.609,6.889-46.392,31.74-49.831,57.408c-4.244,31.67,14.122,59.454,39.527,76.802c23.697,16.181,57.995,15.008,79.971-3.643
		c25.763-21.865,28.992-59.324,15.293-88.603c-3.166-6.767-7.632-13.389-13.018-19.431c2.338-2.445,4.652-4.908,6.939-7.391
		c3.678,4.096,6.981,8.365,9.821,12.683C556.543,682.21,558.453,725.087,533.666,754.595z"/>
	<path d="M710.534,716.046c-21.873-29.518-44.765-58.255-66.949-87.533c-3.967-5.236-12.959-0.226-8.988,5.254
		c21.914,30.241,44.069,60.302,66.038,90.504c21.385,29.4,40.674,60.663,63.063,89.275c3.625,4.632,9.945-1.263,7.688-5.932
		C755.564,774.878,732.095,745.142,710.534,716.046z"/>
	<path d="M713.353,653.368c-4.863-5.658-12.972,2.545-8.175,8.174c21.844,25.633,40.272,54.384,62.654,79.449
		c3.207,3.591,8.158-0.974,6.298-4.859C759.596,705.782,735.131,678.708,713.353,653.368z"/>
	<path d="M712.693,586.006c-4.48-6.174-14.861-0.283-10.364,6.058c38.963,54.948,75.256,111.149,111.748,167.704
		c3.277,5.078,10.22,0.683,7.918-4.628C795.425,693.813,751.688,639.745,712.693,586.006z"/>
	<path d="M709.147,809.881c-10.968-15.1-23.002-29.224-36.27-42.355c-5.146-5.094-12.832,2.653-7.924,7.924
		c12.888,13.842,24.595,28.702,35.231,44.339c9.565,14.063,17.447,29.981,28.176,43.129c3.343,4.097,10.342-0.312,8.773-5.107
		C731.543,840.72,719.614,824.292,709.147,809.881z"/>
	<path d="M414.548,841.648c-4.58-4.5-11.577,2.488-7.048,7.048c29.494,29.694,60.007,58.017,88,89.191
		c3.427,3.817,10.228-1.265,7.201-5.556C478.369,897.828,444.476,871.047,414.548,841.648z"/>
	<path d="M485.442,858.471c-4.928-5.968-13.341,2.563-8.487,8.487c15.385,18.778,32.346,41.283,54.56,52.346
		c4.463,2.223,9.523-3.438,5.557-7.201C518.889,894.851,501.462,877.874,485.442,858.471z"/>
</g>
</svg>
